Coordinates
version=1
nRows=41
nColumns=38
inDegrees=no

Units are S.I. units (second, meters, Newtons, ...)
If the header above contains a line with 'inDegrees', this indicates whether rotational values are in degrees (yes) or radians (no).

endheader
time	pelvis_tilt	pelvis_list	pelvis_rotation	pelvis_tx	pelvis_ty	pelvis_tz	hip_flexion_r	hip_adduction_r	hip_rotation_r	knee_angle_r	ankle_angle_r	subtalar_angle_r	mtp_angle_r	hip_flexion_l	hip_adduction_l	hip_rotation_l	knee_angle_l	ankle_angle_l	subtalar_angle_l	mtp_angle_l	lumbar_extension	lumbar_bending	lumbar_rotation	arm_flex_r	arm_add_r	arm_rot_r	elbow_flex_r	pro_sup_r	wrist_flex_r	wrist_dev_r	arm_flex_l	arm_add_l	arm_rot_l	elbow_flex_l	pro_sup_l	wrist_flex_l	wrist_dev_l
0	2.79189	1.39079	-1.23573	0.731257	-0.997431	0.944928	0.201607	0.014531	-0.320644	0.297424	-0.0790597	0	0	-0.423278	-0.0745764	-0.353688	0.317995	0.0655463	0	0	-0.329898	0.103682	0.0300118	0.230937	-0.358834	1.0973	0.344955	0.644255	0	0	0.159746	-0.135494	0.158099	0.280932	1.5708	0	0
0.01	2.72864	1.39676	-1.17536	0.733422	-0.98678	0.944061	0.208465	0.0228335	-0.32496	0.312002	-0.0792812	0	0	-0.406693	-0.0920333	-0.38189	0.350001	0.10805	0	0	-0.313813	0.112163	0.0345188	0.223762	-0.362737	1.10077	0.349481	0.639454	0	0	0.149665	-0.133886	0.155125	0.285656	1.5708	0	0
0.02	2.65853	1.40369	-1.10774	0.735923	-0.976132	0.943114	0.214748	0.0320036	-0.329931	0.322782	-0.0768692	0	0	-0.384211	-0.110921	-0.380997	0.388977	0.0914567	0	0	-0.29605	0.120099	0.0371893	0.2178	-0.364558	1.10398	0.351851	0.631085	0	0	0.136618	-0.13449	0.152068	0.294827	1.5708	0	0
0.03	2.67492	1.40068	-1.13061	0.739262	-0.965464	0.9446	0.199165	0.0351592	-0.327991	0.323945	-0.073877	0	0	-0.371284	-0.127045	-0.39256	0.441388	0.0606038	0	0	-0.29602	0.115738	0.0426149	0.213753	-0.362173	1.10641	0.351043	0.624257	0	0	0.12609	-0.137901	0.148924	0.304414	1.5708	0	0
0.04	2.60983	1.40507	-1.06743	0.741727	-0.954963	0.943946	0.196713	0.0469278	-0.330877	0.323488	-0.0675272	0	0	-0.347338	-0.146375	-0.386104	0.483047	0.0292571	0	0	-0.280843	0.123715	0.0440497	0.209196	-0.365618	1.11944	0.356671	0.611323	0	0	0.110791	-0.140301	0.148741	0.32106	1.5708	0	0
0.05	2.61819	1.40185	-1.08143	0.744993	-0.944586	0.945285	0.178236	0.0533034	-0.328047	0.318258	-0.0599549	0	0	-0.3274	-0.165448	-0.38893	0.542073	-0.0134017	0	0	-0.280645	0.121368	0.049157	0.205305	-0.363824	1.12003	0.357014	0.617949	0	0	0.101357	-0.142998	0.14173	0.330398	1.5708	0	0
0.06	2.58664	1.4019	-1.05481	0.747917	-0.934369	0.945612	0.167647	0.0634187	-0.325514	0.314752	-0.0529743	0	0	-0.301536	-0.184375	-0.381593	0.596064	-0.0575482	0	0	-0.27353	0.124692	0.0541341	0.201005	-0.363977	1.12041	0.357827	0.626572	0	0	0.0914602	-0.143951	0.133576	0.3392	1.5708	0	0
0.07	2.5532	1.4006	-1.02491	0.750464	-0.924677	0.946006	0.156892	0.0742762	-0.320628	0.311295	-0.0486637	0	0	-0.272763	-0.203511	-0.367788	0.652238	-0.105279	0	0	-0.268416	0.129633	0.05882	0.198021	-0.365018	1.11809	0.358583	0.631324	0	0	0.0847456	-0.143723	0.12604	0.344941	1.5708	0	0
0.08	2.45881	1.39344	-0.937835	0.752649	-0.915945	0.94672	0.139725	0.0994131	-0.319869	0.287419	-0.0623228	0	0	-0.247266	-0.229238	-0.355248	0.697763	-0.152044	0	0	-0.265189	0.14849	0.0700337	0.197669	-0.371258	1.11447	0.361328	0.636459	0	0	0.0824188	-0.137856	0.118031	0.344971	1.5708	0	0
0.09	2.49355	1.39372	-0.973974	0.754341	-0.907786	0.948212	0.128008	0.0949948	-0.31744	0.290583	-0.05931	0	0	-0.204311	-0.225335	-0.299668	0.783409	-0.0796758	0	0	-0.269888	0.142527	0.072665	0.199464	-0.370973	1.11067	0.360469	0.641665	0	0	0.0836173	-0.137716	0.115673	0.34615	1.5708	0	0
0.1	2.46765	1.38947	-0.955448	0.757409	-0.898552	0.949016	0.114616	0.10642	-0.307603	0.287159	-0.0569015	0	0	-0.17994	-0.249263	-0.27946	0.812495	-0.318534	0	0	-0.269552	0.146548	0.0822597	0.197749	-0.372251	1.11408	0.363024	0.630476	0	0	0.080052	-0.137865	0.11401	0.348945	1.5708	0	0
0.11	2.35636	1.39141	-0.863449	0.761944	-0.890524	0.94805	0.126206	0.110163	-0.383111	0.30413	-0.0499868	0	0	-0.13651	-0.279088	-0.310011	0.876365	-0.297928	0	0	-0.257159	0.156801	0.104814	0.195154	-0.374637	1.11088	0.365847	0.632927	0	0	0.0778355	-0.136346	0.113498	0.349826	1.5708	0	0
0.12	2.41243	1.3835	-0.912891	0.761855	-0.880694	0.949978	0.0931629	0.124426	-0.288086	0.284792	-0.0449479	0	0	-0.120072	-0.277135	-0.278782	0.91458	-0.314224	0	0	-0.266875	0.156645	0.0998853	0.192694	-0.377233	1.10722	0.367985	0.640074	0	0	0.0758354	-0.133881	0.112403	0.350187	1.5708	0	0
0.13	2.41614	1.38077	-0.920879	0.763839	-0.872479	0.951055	0.0789249	0.127788	-0.28011	0.282505	-0.0384771	0	0	-0.0925481	-0.28243	-0.262092	0.956129	-0.31151	0	0	-0.270375	0.15652	0.106169	0.192578	-0.37691	1.09923	0.367494	0.645547	0	0	0.0768519	-0.132622	0.111775	0.349793	1.5708	0	0
0.14	2.41739	1.37859	-0.927049	0.765609	-0.864185	0.951902	0.0652479	0.130573	-0.27337	0.280312	-0.030468	0	0	-0.0740521	-0.283144	-0.248598	0.986143	-0.284244	0	0	-0.272535	0.156658	0.11294	0.192398	-0.377894	1.09465	0.368163	0.648743	0	0	0.0781824	-0.130519	0.11185	0.347485	1.5708	0	0
0.15	2.42344	1.37757	-0.935643	0.76719	-0.856378	0.952811	0.0513657	0.132159	-0.268405	0.27561	-0.0236114	0	0	-0.0443971	-0.282209	-0.22661	1.02181	-0.259888	0	0	-0.275126	0.155151	0.117571	0.192956	-0.376693	1.08701	0.365972	0.656342	0	0	0.0819979	-0.128796	0.112759	0.34411	1.5708	0	0
0.16	2.40818	1.37771	-0.922609	0.768329	-0.848347	0.953113	0.040673	0.13566	-0.267219	0.270525	-0.0172699	0	0	-0.0174567	-0.281907	-0.208379	1.04443	-0.229618	0	0	-0.272778	0.157699	0.121174	0.194707	-0.381708	1.10559	0.372545	0.624496	0	0	0.0837272	-0.125737	0.113192	0.341124	1.5708	0	0
0.17	2.45011	1.38549	-0.965544	0.769971	-0.840064	0.953298	0.0382497	0.124461	-0.259804	0.284485	0.000126795	0	0	0.0154421	-0.264487	-0.182567	1.07264	-0.20376	0	0	-0.269124	0.144328	0.12175	0.193095	-0.378336	1.10272	0.371488	0.626047	0	0	0.0849456	-0.127886	0.117226	0.340065	1.5708	0	0
0.18	2.56151	1.37735	-1.08577	0.772761	-0.832759	0.957328	0.000983405	0.113966	-0.247985	0.268961	-0.000163068	0	0	0.0161597	-0.252203	-0.183403	1.08194	-0.19008	0	0	-0.29215	0.123734	0.132895	0.192571	-0.36258	1.04566	0.35047	0.703514	0	0	0.0946733	-0.131117	0.128087	0.335517	1.5708	0	0
0.19	2.58261	1.38563	-1.10991	0.774963	-0.825326	0.958871	-0.00931198	0.109834	-0.241072	0.255316	0.000177624	0	0	0.051995	-0.238502	-0.161249	1.09998	-0.176953	0	0	-0.283189	0.106687	0.132117	0.196789	-0.34138	1.04786	0.319533	0.698844	0	0	0.0973034	-0.135855	0.133623	0.329339	1.5708	0	0
0.2	2.5849	1.37949	-1.11708	0.776237	-0.818509	0.959564	-0.0285681	0.113197	-0.237994	0.247283	0.00654643	0	0	0.0636828	-0.247304	-0.166605	1.11355	-0.138685	0	0	-0.295924	0.113864	0.143665	0.198369	-0.356249	1.0433	0.341816	0.702901	0	0	0.105606	-0.131133	0.134664	0.328565	1.5708	0	0
0.21	2.60857	1.3804	-1.14635	0.778198	-0.811489	0.960965	-0.0442469	0.110373	-0.231488	0.2367	0.00902352	0	0	0.0965556	-0.254368	-0.170975	1.13147	-0.140506	0	0	-0.299215	0.106246	0.14955	0.201456	-0.353139	1.03701	0.339476	0.711473	0	0	0.111212	-0.13178	0.135223	0.325223	1.5708	0	0
0.22	2.6348	1.38199	-1.17798	0.779766	-0.804776	0.962276	-0.0586749	0.106129	-0.22397	0.226261	0.00982366	0	0	0.120278	-0.238736	-0.153156	1.13356	-0.125941	0	0	-0.302726	0.0983612	0.155329	0.20535	-0.350093	1.02702	0.335777	0.722172	0	0	0.117944	-0.131737	0.136236	0.321555	1.5708	0	0
0.23	2.64475	1.38294	-1.1961	0.781417	-0.797404	0.963213	-0.0729919	0.104356	-0.215854	0.216533	0.012953	0	0	0.137608	-0.245867	-0.16955	1.12988	-0.108287	0	0	-0.303462	0.0937376	0.164138	0.207424	-0.348665	1.02045	0.332795	0.727799	0	0	0.121405	-0.131387	0.137113	0.319823	1.5708	0	0
0.24	2.66498	1.38394	-1.22288	0.782977	-0.790333	0.964277	-0.087869	0.101048	-0.207719	0.206023	0.0148243	0	0	0.154909	-0.242432	-0.173569	1.12197	-0.090993	0	0	-0.305377	0.0871626	0.171353	0.209376	-0.347431	1.00975	0.331759	0.738326	0	0	0.126047	-0.132061	0.138511	0.318334	1.5708	0	0
0.25	2.77048	1.3754	-1.33723	0.785269	-0.783964	0.967651	-0.118308	0.0843737	-0.196315	0.192575	0.0145985	0	0	0.153691	-0.231615	-0.193917	1.10445	-0.0878176	0	0	-0.324708	0.0639655	0.178804	0.215358	-0.34241	0.999597	0.32943	0.749248	0	0	0.135516	-0.1363	0.142113	0.317669	1.5708	0	0
0.26	2.79097	1.37591	-1.36322	0.786621	-0.776991	0.968501	-0.133014	0.0806885	-0.188227	0.181754	0.016693	0	0	0.167862	-0.229593	-0.203667	1.08754	-0.0764093	0	0	-0.326474	0.0573837	0.185056	0.21804	-0.340702	0.98971	0.326754	0.762136	0	0	0.14052	-0.13754	0.146696	0.317259	1.5708	0	0
0.27	2.81896	1.37688	-1.39499	0.787996	-0.770444	0.969387	-0.146279	0.075621	-0.181836	0.172451	0.0200477	0	0	0.194115	-0.224952	-0.205535	1.08347	-0.0746447	0	0	-0.329299	0.0488506	0.18903	0.222226	-0.337479	0.978261	0.323282	0.777336	0	0	0.146459	-0.140286	0.152482	0.317777	1.5708	0	0
0.28	2.76138	1.38722	-1.34056	0.788673	-0.762704	0.967777	-0.146634	0.0849561	-0.17544	0.164466	0.0252777	0	0	0.221368	-0.232561	-0.20677	1.0656	-0.0527162	0	0	-0.31403	0.0585852	0.192976	0.225924	-0.351563	1.04483	0.343684	0.686604	0	0	0.147407	-0.137099	0.143216	0.310752	1.5708	0	0
0.29	2.63452	1.4086	-1.21116	0.79046	-0.756929	0.964671	-0.126686	0.105151	-0.167703	0.16013	0.0276781	0	0	0.280138	-0.244581	-0.186102	1.0607	-0.03765	0	0	-0.287214	0.0720315	0.194649	0.227825	-0.34988	1.04325	0.344239	0.686698	0	0	0.152106	-0.139754	0.147984	0.307889	1.5708	0	0
0.3	2.65726	1.40942	-1.23739	0.791507	-0.749898	0.965129	-0.141256	0.10136	-0.162071	0.150126	0.0309408	0	0	0.288316	-0.242481	-0.200397	1.02959	-0.0292726	0	0	-0.288965	0.0660754	0.198745	0.230256	-0.347854	1.03388	0.342983	0.69969	0	0	0.157446	-0.141317	0.153152	0.305557	1.5708	0	0
0.31	2.68159	1.40952	-1.26529	0.792485	-0.742778	0.965578	-0.157179	0.0974007	-0.155544	0.138893	0.033562	0	0	0.293289	-0.24031	-0.216977	0.994526	-0.0209189	0	0	-0.291392	0.0602752	0.202517	0.233727	-0.347956	1.04123	0.3446	0.68955	0	0	0.163921	-0.141764	0.156011	0.30005	1.5708	0	0
0.32	2.70609	1.40955	-1.29234	0.793352	-0.735711	0.965939	-0.172936	0.0935037	-0.149714	0.127726	0.0347715	0	0	0.296449	-0.237825	-0.235152	0.955155	-0.0130628	0	0	-0.294177	0.0545808	0.205108	0.237452	-0.347348	1.04645	0.345507	0.681627	0	0	0.17067	-0.142126	0.159196	0.294583	1.5708	0	0
0.33	2.79088	1.40389	-1.38054	0.79461	-0.729245	0.967674	-0.196194	0.0805818	-0.1441	0.116832	0.0345465	0	0	0.288738	-0.228443	-0.261577	0.910114	-0.0145082	0	0	-0.307989	0.0381137	0.206851	0.244705	-0.343288	1.05212	0.343623	0.674592	0	0	0.181257	-0.144076	0.159971	0.28792	1.5708	0	0
0.34	2.74768	1.40847	-1.33877	0.794959	-0.72129	0.966239	-0.204676	0.0865348	-0.138574	0.106936	0.0377974	0	0	0.29648	-0.232346	-0.275341	0.865846	-0.0011642	0	0	-0.300388	0.0447998	0.209492	0.245202	-0.34636	1.06029	0.347608	0.669315	0	0	0.18359	-0.141748	0.158773	0.280727	1.5708	0	0
0.35	2.76575	1.40788	-1.35885	0.795626	-0.713977	0.96611	-0.219809	0.0829855	-0.134012	0.0982696	0.0442375	0	0	0.29478	-0.22846	-0.295958	0.818008	0.00496486	0	0	-0.303322	0.040453	0.211271	0.249112	-0.345484	1.06848	0.347446	0.66306	0	0	0.190188	-0.140984	0.156962	0.272416	1.5708	0	0
0.36	2.83702	1.40384	-1.43057	0.796326	-0.707377	0.967012	-0.238713	0.0710735	-0.13194	0.0904431	0.0494809	0	0	0.285126	-0.21777	-0.327044	0.763857	0.00427286	0	0	-0.314567	0.0260019	0.21128	0.252019	-0.33323	1.01975	0.330907	0.733993	0	0	0.197929	-0.145237	0.176716	0.272974	1.5708	0	0
0.37	2.84549	1.40453	-1.4385	0.796494	-0.699988	0.966346	-0.251185	0.0688656	-0.129039	0.0827801	0.0536751	0	0	0.282903	-0.212816	-0.349818	0.710641	0.0104837	0	0	-0.315856	0.0243938	0.209547	0.25792	-0.336207	1.04909	0.336681	0.693701	0	0	0.206254	-0.140974	0.156416	0.256004	1.5708	0	0
0.38	2.86215	1.39802	-1.45164	0.796631	-0.692447	0.965448	-0.273155	0.0672758	-0.129768	0.0732277	0.059719	0	0	0.271005	-0.2146	-0.393056	0.658831	0.0182481	0	0	-0.324578	0.0196385	0.205336	0.264225	-0.339806	1.08128	0.347155	0.650428	0	0	0.204638	-0.171406	0.234608	0.315542	1.5708	0	0
0.39	2.866	1.40684	-1.45285	0.796172	-0.685362	0.964578	-0.272217	0.0643704	-0.130279	0.0731879	0.0653071	0	0	0.273982	-0.189083	-0.374362	0.587252	0.0158909	0	0	-0.318772	0.0212871	0.20224	0.269075	-0.339442	1.09184	0.343294	0.645008	0	0	0.208505	-0.147292	0.193578	0.26493	1.5708	0	0
0.4	2.84044	1.41106	-1.42266	0.795632	-0.677815	0.962767	-0.278159	0.0680048	-0.131372	0.0697586	0.0721305	0	0	0.281398	-0.190791	-0.399877	0.54422	0.0223719	0	0	-0.315451	0.0266926	0.197796	0.273124	-0.34098	1.1035	0.344484	0.636917	0	0	0.217845	-0.140531	0.162133	0.241531	1.5708	0	0
